<?xml version="1.0" encoding="iso-8859-1"?>
<!-- Generator: Adobe Illustrator 19.0.0, SVG Export Plug-In . SVG Version: 6.00 Build 0)  -->
<svg version="1.1" id="Layer_1" xmlns="http://www.w3.org/2000/svg" xmlns:xlink="http://www.w3.org/1999/xlink" x="0px" y="0px"
	 viewBox="0 0 512 512" style="enable-background:new 0 0 512 512;" xml:space="preserve">
<rect y="57.332" width="512" height="397.336"/>
<circle style="fill:#E21B1B;" cx="44.192" cy="89.38" r="8.928"/>
<g style="opacity:0.7;">
	<circle style="fill:#FFFFFF;" cx="70.968" cy="89.38" r="8.928"/>
</g>
<g>
	<circle style="fill:#666666;" cx="97.736" cy="89.38" r="8.928"/>
	<polygon style="fill:#666666;" points="443.52,105.06 155.96,105.06 175.08,73.716 462.656,73.716 	"/>
</g>
<g>
	<path style="fill:#FFFFFF;" d="M195.2,82.396l1.856,7.128c0.408,1.56,0.8,3.008,1.048,4.456h0.096c0.312-1.416,0.8-2.92,1.24-4.424
		l2.296-7.16h2.144l2.168,7.008c0.52,1.672,0.928,3.16,1.248,4.576h0.088c0.28-1.536,0.64-3.048,1.08-4.544l2.008-7.04h2.52
		l-4.52,14.016h-2.312l-2.144-6.688c-0.488-1.6-0.896-2.952-1.248-4.616h-0.056c-0.336,1.568-0.76,3.12-1.28,4.64l-2.264,6.664
		h-2.312l-4.224-14.016H195.2z"/>
	<path style="fill:#FFFFFF;" d="M216.856,82.396l1.856,7.128c0.408,1.56,0.8,3.008,1.048,4.456h0.088
		c0.32-1.416,0.8-2.92,1.248-4.424l2.28-7.16h2.144l2.176,7.008c0.52,1.672,0.928,3.16,1.24,4.576h0.096
		c0.272-1.536,0.632-3.056,1.08-4.544l2.008-7.04h2.52l-4.52,14.016h-2.328l-2.144-6.688c-0.496-1.512-0.912-3.056-1.24-4.616
		h-0.064c-0.328,1.568-0.752,3.12-1.272,4.64l-2.264,6.664h-2.328l-4.232-14.016H216.856z"/>
	<path style="fill:#FFFFFF;" d="M238.488,82.396l1.856,7.128c0.408,1.56,0.8,3.008,1.048,4.456h0.088
		c0.32-1.416,0.8-2.92,1.248-4.424l2.28-7.16h2.144l2.176,7.008c0.52,1.672,0.928,3.16,1.24,4.576h0.096
		c0.272-1.536,0.632-3.056,1.08-4.544l2.008-7.04h2.52l-4.52,14.016h-2.328l-2.152-6.688c-0.496-1.512-0.912-3.056-1.24-4.616
		h-0.064c-0.328,1.568-0.752,3.12-1.272,4.64l-2.264,6.664h-2.328l-4.232-14.016H238.488z"/>
</g>
<g>
	<polygon style="fill:#666666;" points="0,423.58 82.856,423.58 113.944,454.66 0,454.66 	"/>
	<polygon style="fill:#666666;" points="512,423.58 429.144,423.58 398.056,454.66 512,454.66 	"/>
	<rect x="61.144" y="186.14" style="fill:#666666;" width="118.496" height="164.08"/>
</g>
<rect x="209.28" y="186.14" style="fill:#E21B1B;" width="241.6" height="29.04"/>
<g>
	<rect x="209.28" y="239.3" style="fill:#999999;" width="241.6" height="8"/>
	<rect x="209.28" y="266.076" style="fill:#999999;" width="241.6" height="8"/>
	<rect x="209.28" y="292.772" style="fill:#999999;" width="241.6" height="8"/>
	<rect x="209.28" y="319.5" style="fill:#999999;" width="241.6" height="8"/>
	<rect x="209.28" y="346.236" style="fill:#999999;" width="241.6" height="8"/>
</g>
<g>
</g>
<g>
</g>
<g>
</g>
<g>
</g>
<g>
</g>
<g>
</g>
<g>
</g>
<g>
</g>
<g>
</g>
<g>
</g>
<g>
</g>
<g>
</g>
<g>
</g>
<g>
</g>
<g>
</g>
</svg>
